<svg xmlns="http://www.w3.org/2000/svg" xmlns:xlink="http://www.w3.org/1999/xlink" version="1.1" x="0px" y="0px" viewBox="0 0 100 125" enable-background="new 0 0 100 100" xml:space="preserve"><g><path d="M33.8,89.3c-11.2-2.8-21-21-17.6-33.2c-0.9-11.9-0.7-23.1,3.6-32.5c2-2.6,4.1-5.4,6.5-8.1   c0.2-0.2,0.3-0.8,0.2-0.8c14.3-11,32.6-10.2,43.1-3.2c7.5,5,15.4,20,14.9,30.6c-0.2,4.6-1.3,8.7-3.6,12.8c2,10.3-0.6,19.2-6.5,26.3   c-0.1,0.1-0.5,0.3-0.7,0.3c4.9-6.7,7.5-14.4,6.5-23.6c-0.1-0.6-0.9,1.2-1-0.3c0,0.1-0.2,0.2-0.3,0.3c-6.6,13.3-29.4,19.6-40.6,11.9   c-6.2-1.4-11.5-4.5-15.6-10.5c-0.3-0.4-1-0.2-1,0.4c1.3,8.2,7.2,13.2,12.1,16.5c0.8,0.6-0.2,0.2-0.8,0c-4.7-2-9.1-6.4-13-11.4   c0.2,10.1,7.3,19.1,13.3,24C33.5,88.8,33.8,89.1,33.8,89.3 M39.1,36.5c-0.4,1.1-0.7,0.5-0.8,0.4C30.1,40.4,26,46,24.2,52.4   c-0.2,0.7-0.1,1.5,0.2,2.2c2.9,5.8,7,9.3,10.9,12.7c10,8.8,32.5,4.6,41.1-8c0.8-1.1,1-2.7,1.8-3.8c1.1-1.4,0.9-3.4,0-5.2   c-6.2-12.2-17-15.4-28.2-16.3c-2.1-0.2-4.4-0.3-6.9,0.8C41.7,35.3,39.5,35.6,39.1,36.5 M35.5,23.7c-2.9,1.5-4.1,3.9-6,6   c-1,1.9-2.6,3.4-3.2,5.5C26,36,25,37.3,25.8,38c2.3-2.6,5-5.1,9-6.4c16.6-5.6,30.6-3,40.1,8.6c1.5,3.2,3.3,6.5,4.3,9.8   c0.1,0.3,0.3,2.3,0.8,1.1c0.6-1.5,0.7-3.1,0.6-4.6L79.8,42l-3.2-8.2C67.8,20.4,52.7,14.4,35.5,23.7 M40,15c-1,0.5-2,1.2-2.9,1.8   c-1,0.7-2.5,1.4-2.7,2.9c16.1-6.1,28.5-2.5,37.9,6.7c2.6,2.6,4.6,6.5,6.4,10.3c1.3,2.7,1.6,5.9,2.7,9.3c0.6-4.9-0.1-9.6-1.4-14.8   c-0.8-1-1.2-2.6-2.1-4.1C69.6,13.9,56,7.9,40,15 M49,93.5c3.8-0.4,7.9-1.2,12.2-2.9c3.3-1.3,5.9-3.3,8.8-4.8   C65.1,90.9,55.6,93.9,49,93.5 M70,85.8c0-0.1,0.1-0.4,0.2-0.4c0.5-0.5,1-1.1,1.7-1.2C71.6,85,70.6,85.3,70,85.8 M46,93.1   c0.7-0.7,1.5,0.2,2.3,0.2C47.5,94.1,46.7,93.1,46,93.1"/></g><text x="0" y="115" fill="#000000" font-size="5px" font-weight="bold" font-family="'Helvetica Neue', Helvetica, Arial-Unicode, Arial, Sans-serif">Created by Richard Slade</text><text x="0" y="120" fill="#000000" font-size="5px" font-weight="bold" font-family="'Helvetica Neue', Helvetica, Arial-Unicode, Arial, Sans-serif">from the Noun Project</text></svg>